<svg xmlns="http://www.w3.org/2000/svg" viewBox="0 0 96 96" role="img" aria-label="VAS type">
  <defs>
    <linearGradient id="box" x1="16" y1="28" x2="80" y2="88" gradientUnits="userSpaceOnUse">
      <stop stop-color="#38bdf8"/>
      <stop offset="1" stop-color="#2563eb"/>
    </linearGradient>
    <linearGradient id="lid" x1="14" y1="18" x2="82" y2="40" gradientUnits="userSpaceOnUse">
      <stop stop-color="#f472b6"/>
      <stop offset="1" stop-color="#db2777"/>
    </linearGradient>
    <linearGradient id="ribbon" x1="44" y1="12" x2="52" y2="88" gradientUnits="userSpaceOnUse">
      <stop stop-color="#fbbf24"/>
      <stop offset="1" stop-color="#f59e0b"/>
    </linearGradient>
  </defs>
  <rect x="18" y="36" width="60" height="44" rx="8" fill="url(#box)"/>
  <rect x="14" y="24" width="68" height="18" rx="7" fill="url(#lid)"/>
  <rect x="44" y="24" width="8" height="56" rx="3" fill="url(#ribbon)"/>
  <rect x="18" y="40" width="60" height="8" rx="3" fill="url(#ribbon)" opacity="0.95"/>
  <path d="M48 24c-6-10-16-12-20-6-3 5 1 11 8 12 5 1 10-2 12-6 2 4 7 7 12 6 7-1 11-7 8-12-4-6-14-4-20 6z" fill="#fbbf24"/>
  <circle cx="48" cy="22" r="3.5" fill="#fde68a"/>
</svg>
